<svg style="overflow: hidden; position: relative; " height="350" version="1.1" width="350" xmlns="http://www.w3.org/2000/svg"><desc style="-webkit-tap-highlight-color: rgba(0, 0, 0, 0); ">Created with Raphaël 2.1.0</desc><defs style="-webkit-tap-highlight-color: rgba(0, 0, 0, 0); "></defs><path style="-webkit-tap-highlight-color: rgba(0, 0, 0, 0); " fill="#333333" stroke="#333333" d="M14.615,4.928C15.102,3.942,15.899000000000001,3.942,16.386,4.928C16.386,4.928,18.634999999999998,9.482,18.634999999999998,9.482C19.121,10.468,20.409999999999997,11.405,21.499,11.562999999999999C21.499,11.562999999999999,26.523,12.293,26.523,12.293C27.612,12.450999999999999,27.858,13.209,27.07,13.976999999999999C27.07,13.976999999999999,23.434,17.520999999999997,23.434,17.520999999999997C22.646,18.289999999999996,22.154,19.804,22.339000000000002,20.888999999999996C22.339000000000002,20.888999999999996,23.198,25.892999999999994,23.198,25.892999999999994C23.384,26.977999999999994,22.739,27.445999999999994,21.765,26.933999999999994C21.765,26.933999999999994,17.27,24.570999999999994,17.27,24.570999999999994C16.296,24.058999999999994,14.703,24.058999999999994,13.729,24.570999999999994C13.729,24.570999999999994,9.233999999999998,26.933999999999994,9.233999999999998,26.933999999999994C8.259999999999998,27.445999999999994,7.615999999999998,26.977999999999994,7.801999999999998,25.892999999999994C7.801999999999998,25.892999999999994,8.659999999999998,20.888999999999996,8.659999999999998,20.888999999999996C8.845999999999998,19.803999999999995,8.352999999999998,18.288999999999994,7.565999999999998,17.520999999999997C7.565999999999998,17.520999999999997,3.93,13.977,3.93,13.977C3.1420000000000003,13.209,3.388,12.452,4.477,12.293000000000001C4.477,12.293000000000001,9.503,11.563,9.503,11.563C10.591000000000001,11.405000000000001,11.879999999999999,10.468,12.367,9.482000000000001C12.367,9.482000000000001,14.615,4.928,14.615,4.928C14.615,4.928,14.615,4.928,14.615,4.928" stroke-width="0" transform="matrix(10,0,0,10,10,10)"></path><circle style="-webkit-tap-highlight-color: rgba(0, 0, 0, 0); opacity: 0; " cx="15.102" cy="3.942" r="0.1" fill="#333333" stroke="#333333" stroke-width="0.1" opacity="0" transform="matrix(10,0,0,10,10,10)"></circle><circle style="-webkit-tap-highlight-color: rgba(0, 0, 0, 0); opacity: 0; " cx="15.899000000000001" cy="3.942" r="0.1" fill="#333333" stroke="#333333" stroke-width="0.1" opacity="0" transform="matrix(10,0,0,10,10,10)"></circle><path style="-webkit-tap-highlight-color: rgba(0, 0, 0, 0); opacity: 0; " fill="#333333" stroke="#333333" d="M14.615,4.928L15.102,3.942M15.899000000000001,3.942L16.386,4.928" stroke-width="0.1" opacity="0" transform="matrix(10,0,0,10,10,10)"></path><circle style="-webkit-tap-highlight-color: rgba(0, 0, 0, 0); opacity: 0; " cx="16.386" cy="4.928" r="0.1" fill="#333333" stroke="#333333" stroke-width="0.1" opacity="0" transform="matrix(10,0,0,10,10,10)"></circle><circle style="-webkit-tap-highlight-color: rgba(0, 0, 0, 0); opacity: 0; " cx="18.634999999999998" cy="9.482" r="0.1" fill="#333333" stroke="#333333" stroke-width="0.1" opacity="0" transform="matrix(10,0,0,10,10,10)"></circle><path style="-webkit-tap-highlight-color: rgba(0, 0, 0, 0); opacity: 0; " fill="#333333" stroke="#333333" d="M16.386,4.928L16.386,4.928M18.634999999999998,9.482L18.634999999999998,9.482" stroke-width="0.1" opacity="0" transform="matrix(10,0,0,10,10,10)"></path><circle style="-webkit-tap-highlight-color: rgba(0, 0, 0, 0); opacity: 0; " cx="19.121" cy="10.468" r="0.1" fill="#333333" stroke="#333333" stroke-width="0.1" opacity="0" transform="matrix(10,0,0,10,10,10)"></circle><circle style="-webkit-tap-highlight-color: rgba(0, 0, 0, 0); opacity: 0; " cx="20.409999999999997" cy="11.405" r="0.1" fill="#333333" stroke="#333333" stroke-width="0.1" opacity="0" transform="matrix(10,0,0,10,10,10)"></circle><path style="-webkit-tap-highlight-color: rgba(0, 0, 0, 0); opacity: 0; " fill="#333333" stroke="#333333" d="M18.634999999999998,9.482L19.121,10.468M20.409999999999997,11.405L21.499,11.562999999999999" stroke-width="0.1" opacity="0" transform="matrix(10,0,0,10,10,10)"></path><circle style="-webkit-tap-highlight-color: rgba(0, 0, 0, 0); opacity: 0; " cx="21.499" cy="11.562999999999999" r="0.1" fill="#333333" stroke="#333333" stroke-width="0.1" opacity="0" transform="matrix(10,0,0,10,10,10)"></circle><circle style="-webkit-tap-highlight-color: rgba(0, 0, 0, 0); opacity: 0; " cx="26.523" cy="12.293" r="0.1" fill="#333333" stroke="#333333" stroke-width="0.1" opacity="0" transform="matrix(10,0,0,10,10,10)"></circle><path style="-webkit-tap-highlight-color: rgba(0, 0, 0, 0); opacity: 0; " fill="#333333" stroke="#333333" d="M21.499,11.562999999999999L21.499,11.562999999999999M26.523,12.293L26.523,12.293" stroke-width="0.1" opacity="0" transform="matrix(10,0,0,10,10,10)"></path><circle style="-webkit-tap-highlight-color: rgba(0, 0, 0, 0); opacity: 0; " cx="27.612" cy="12.450999999999999" r="0.1" fill="#333333" stroke="#333333" stroke-width="0.1" opacity="0" transform="matrix(10,0,0,10,10,10)"></circle><circle style="-webkit-tap-highlight-color: rgba(0, 0, 0, 0); opacity: 0; " cx="27.858" cy="13.209" r="0.1" fill="#333333" stroke="#333333" stroke-width="0.1" opacity="0" transform="matrix(10,0,0,10,10,10)"></circle><path style="-webkit-tap-highlight-color: rgba(0, 0, 0, 0); opacity: 0; " fill="#333333" stroke="#333333" d="M26.523,12.293L27.612,12.450999999999999M27.858,13.209L27.07,13.976999999999999" stroke-width="0.1" opacity="0" transform="matrix(10,0,0,10,10,10)"></path><circle style="-webkit-tap-highlight-color: rgba(0, 0, 0, 0); opacity: 0; " cx="27.07" cy="13.976999999999999" r="0.1" fill="#333333" stroke="#333333" stroke-width="0.1" opacity="0" transform="matrix(10,0,0,10,10,10)"></circle><circle style="-webkit-tap-highlight-color: rgba(0, 0, 0, 0); opacity: 0; " cx="23.434" cy="17.520999999999997" r="0.1" fill="#333333" stroke="#333333" stroke-width="0.1" opacity="0" transform="matrix(10,0,0,10,10,10)"></circle><path style="-webkit-tap-highlight-color: rgba(0, 0, 0, 0); opacity: 0; " fill="#333333" stroke="#333333" d="M27.07,13.976999999999999L27.07,13.976999999999999M23.434,17.520999999999997L23.434,17.520999999999997" stroke-width="0.1" opacity="0" transform="matrix(10,0,0,10,10,10)"></path><circle style="-webkit-tap-highlight-color: rgba(0, 0, 0, 0); opacity: 0; " cx="22.646" cy="18.289999999999996" r="0.1" fill="#333333" stroke="#333333" stroke-width="0.1" opacity="0" transform="matrix(10,0,0,10,10,10)"></circle><circle style="-webkit-tap-highlight-color: rgba(0, 0, 0, 0); opacity: 0; " cx="22.154" cy="19.804" r="0.1" fill="#333333" stroke="#333333" stroke-width="0.1" opacity="0" transform="matrix(10,0,0,10,10,10)"></circle><path style="-webkit-tap-highlight-color: rgba(0, 0, 0, 0); opacity: 0; " fill="#333333" stroke="#333333" d="M23.434,17.520999999999997L22.646,18.289999999999996M22.154,19.804L22.339000000000002,20.888999999999996" stroke-width="0.1" opacity="0" transform="matrix(10,0,0,10,10,10)"></path><circle style="-webkit-tap-highlight-color: rgba(0, 0, 0, 0); opacity: 0; " cx="22.339000000000002" cy="20.888999999999996" r="0.1" fill="#333333" stroke="#333333" stroke-width="0.1" opacity="0" transform="matrix(10,0,0,10,10,10)"></circle><circle style="-webkit-tap-highlight-color: rgba(0, 0, 0, 0); opacity: 0; " cx="23.198" cy="25.892999999999994" r="0.1" fill="#333333" stroke="#333333" stroke-width="0.1" opacity="0" transform="matrix(10,0,0,10,10,10)"></circle><path style="-webkit-tap-highlight-color: rgba(0, 0, 0, 0); opacity: 0; " fill="#333333" stroke="#333333" d="M22.339000000000002,20.888999999999996L22.339000000000002,20.888999999999996M23.198,25.892999999999994L23.198,25.892999999999994" stroke-width="0.1" opacity="0" transform="matrix(10,0,0,10,10,10)"></path><circle style="-webkit-tap-highlight-color: rgba(0, 0, 0, 0); opacity: 0; " cx="23.384" cy="26.977999999999994" r="0.1" fill="#333333" stroke="#333333" stroke-width="0.1" opacity="0" transform="matrix(10,0,0,10,10,10)"></circle><circle style="-webkit-tap-highlight-color: rgba(0, 0, 0, 0); opacity: 0; " cx="22.739" cy="27.445999999999994" r="0.1" fill="#333333" stroke="#333333" stroke-width="0.1" opacity="0" transform="matrix(10,0,0,10,10,10)"></circle><path style="-webkit-tap-highlight-color: rgba(0, 0, 0, 0); opacity: 0; " fill="#333333" stroke="#333333" d="M23.198,25.892999999999994L23.384,26.977999999999994M22.739,27.445999999999994L21.765,26.933999999999994" stroke-width="0.1" opacity="0" transform="matrix(10,0,0,10,10,10)"></path><circle style="-webkit-tap-highlight-color: rgba(0, 0, 0, 0); opacity: 0; " cx="21.765" cy="26.933999999999994" r="0.1" fill="#333333" stroke="#333333" stroke-width="0.1" opacity="0" transform="matrix(10,0,0,10,10,10)"></circle><circle style="-webkit-tap-highlight-color: rgba(0, 0, 0, 0); opacity: 0; " cx="17.27" cy="24.570999999999994" r="0.1" fill="#333333" stroke="#333333" stroke-width="0.1" opacity="0" transform="matrix(10,0,0,10,10,10)"></circle><path style="-webkit-tap-highlight-color: rgba(0, 0, 0, 0); opacity: 0; " fill="#333333" stroke="#333333" d="M21.765,26.933999999999994L21.765,26.933999999999994M17.27,24.570999999999994L17.27,24.570999999999994" stroke-width="0.1" opacity="0" transform="matrix(10,0,0,10,10,10)"></path><circle style="-webkit-tap-highlight-color: rgba(0, 0, 0, 0); opacity: 0; " cx="16.296" cy="24.058999999999994" r="0.1" fill="#333333" stroke="#333333" stroke-width="0.1" opacity="0" transform="matrix(10,0,0,10,10,10)"></circle><circle style="-webkit-tap-highlight-color: rgba(0, 0, 0, 0); opacity: 0; " cx="14.703" cy="24.058999999999994" r="0.1" fill="#333333" stroke="#333333" stroke-width="0.1" opacity="0" transform="matrix(10,0,0,10,10,10)"></circle><path style="-webkit-tap-highlight-color: rgba(0, 0, 0, 0); opacity: 0; " fill="#333333" stroke="#333333" d="M17.27,24.570999999999994L16.296,24.058999999999994M14.703,24.058999999999994L13.729,24.570999999999994" stroke-width="0.1" opacity="0" transform="matrix(10,0,0,10,10,10)"></path><circle style="-webkit-tap-highlight-color: rgba(0, 0, 0, 0); opacity: 0; " cx="13.729" cy="24.570999999999994" r="0.1" fill="#333333" stroke="#333333" stroke-width="0.1" opacity="0" transform="matrix(10,0,0,10,10,10)"></circle><circle style="-webkit-tap-highlight-color: rgba(0, 0, 0, 0); opacity: 0; " cx="9.233999999999998" cy="26.933999999999994" r="0.1" fill="#333333" stroke="#333333" stroke-width="0.1" opacity="0" transform="matrix(10,0,0,10,10,10)"></circle><path style="-webkit-tap-highlight-color: rgba(0, 0, 0, 0); opacity: 0; " fill="#333333" stroke="#333333" d="M13.729,24.570999999999994L13.729,24.570999999999994M9.233999999999998,26.933999999999994L9.233999999999998,26.933999999999994" stroke-width="0.1" opacity="0" transform="matrix(10,0,0,10,10,10)"></path><circle style="-webkit-tap-highlight-color: rgba(0, 0, 0, 0); opacity: 0; " cx="8.259999999999998" cy="27.445999999999994" r="0.1" fill="#333333" stroke="#333333" stroke-width="0.1" opacity="0" transform="matrix(10,0,0,10,10,10)"></circle><circle style="-webkit-tap-highlight-color: rgba(0, 0, 0, 0); opacity: 0; " cx="7.615999999999998" cy="26.977999999999994" r="0.1" fill="#333333" stroke="#333333" stroke-width="0.1" opacity="0" transform="matrix(10,0,0,10,10,10)"></circle><path style="-webkit-tap-highlight-color: rgba(0, 0, 0, 0); opacity: 0; " fill="#333333" stroke="#333333" d="M9.233999999999998,26.933999999999994L8.259999999999998,27.445999999999994M7.615999999999998,26.977999999999994L7.801999999999998,25.892999999999994" stroke-width="0.1" opacity="0" transform="matrix(10,0,0,10,10,10)"></path><circle style="-webkit-tap-highlight-color: rgba(0, 0, 0, 0); opacity: 0; " cx="7.801999999999998" cy="25.892999999999994" r="0.1" fill="#333333" stroke="#333333" stroke-width="0.1" opacity="0" transform="matrix(10,0,0,10,10,10)"></circle><circle style="-webkit-tap-highlight-color: rgba(0, 0, 0, 0); opacity: 0; " cx="8.659999999999998" cy="20.888999999999996" r="0.1" fill="#333333" stroke="#333333" stroke-width="0.1" opacity="0" transform="matrix(10,0,0,10,10,10)"></circle><path style="-webkit-tap-highlight-color: rgba(0, 0, 0, 0); opacity: 0; " fill="#333333" stroke="#333333" d="M7.801999999999998,25.892999999999994L7.801999999999998,25.892999999999994M8.659999999999998,20.888999999999996L8.659999999999998,20.888999999999996" stroke-width="0.1" opacity="0" transform="matrix(10,0,0,10,10,10)"></path><circle style="-webkit-tap-highlight-color: rgba(0, 0, 0, 0); opacity: 0; " cx="8.845999999999998" cy="19.803999999999995" r="0.1" fill="#333333" stroke="#333333" stroke-width="0.1" opacity="0" transform="matrix(10,0,0,10,10,10)"></circle><circle style="-webkit-tap-highlight-color: rgba(0, 0, 0, 0); opacity: 0; " cx="8.352999999999998" cy="18.288999999999994" r="0.1" fill="#333333" stroke="#333333" stroke-width="0.1" opacity="0" transform="matrix(10,0,0,10,10,10)"></circle><path style="-webkit-tap-highlight-color: rgba(0, 0, 0, 0); opacity: 0; " fill="#333333" stroke="#333333" d="M8.659999999999998,20.888999999999996L8.845999999999998,19.803999999999995M8.352999999999998,18.288999999999994L7.565999999999998,17.520999999999997" stroke-width="0.1" opacity="0" transform="matrix(10,0,0,10,10,10)"></path><circle style="-webkit-tap-highlight-color: rgba(0, 0, 0, 0); opacity: 0; " cx="7.565999999999998" cy="17.520999999999997" r="0.1" fill="#333333" stroke="#333333" stroke-width="0.1" opacity="0" transform="matrix(10,0,0,10,10,10)"></circle><circle style="-webkit-tap-highlight-color: rgba(0, 0, 0, 0); opacity: 0; " cx="3.93" cy="13.977" r="0.1" fill="#333333" stroke="#333333" stroke-width="0.1" opacity="0" transform="matrix(10,0,0,10,10,10)"></circle><path style="-webkit-tap-highlight-color: rgba(0, 0, 0, 0); opacity: 0; " fill="#333333" stroke="#333333" d="M7.565999999999998,17.520999999999997L7.565999999999998,17.520999999999997M3.93,13.977L3.93,13.977" stroke-width="0.1" opacity="0" transform="matrix(10,0,0,10,10,10)"></path><circle style="-webkit-tap-highlight-color: rgba(0, 0, 0, 0); opacity: 0; " cx="3.1420000000000003" cy="13.209" r="0.1" fill="#333333" stroke="#333333" stroke-width="0.1" opacity="0" transform="matrix(10,0,0,10,10,10)"></circle><circle style="-webkit-tap-highlight-color: rgba(0, 0, 0, 0); opacity: 0; " cx="3.388" cy="12.452" r="0.1" fill="#333333" stroke="#333333" stroke-width="0.1" opacity="0" transform="matrix(10,0,0,10,10,10)"></circle><path style="-webkit-tap-highlight-color: rgba(0, 0, 0, 0); opacity: 0; " fill="#333333" stroke="#333333" d="M3.93,13.977L3.1420000000000003,13.209M3.388,12.452L4.477,12.293000000000001" stroke-width="0.1" opacity="0" transform="matrix(10,0,0,10,10,10)"></path><circle style="-webkit-tap-highlight-color: rgba(0, 0, 0, 0); opacity: 0; " cx="4.477" cy="12.293000000000001" r="0.1" fill="#333333" stroke="#333333" stroke-width="0.1" opacity="0" transform="matrix(10,0,0,10,10,10)"></circle><circle style="-webkit-tap-highlight-color: rgba(0, 0, 0, 0); opacity: 0; " cx="9.503" cy="11.563" r="0.1" fill="#333333" stroke="#333333" stroke-width="0.1" opacity="0" transform="matrix(10,0,0,10,10,10)"></circle><path style="-webkit-tap-highlight-color: rgba(0, 0, 0, 0); opacity: 0; " fill="#333333" stroke="#333333" d="M4.477,12.293000000000001L4.477,12.293000000000001M9.503,11.563L9.503,11.563" stroke-width="0.1" opacity="0" transform="matrix(10,0,0,10,10,10)"></path><circle style="-webkit-tap-highlight-color: rgba(0, 0, 0, 0); opacity: 0; " cx="10.591000000000001" cy="11.405000000000001" r="0.1" fill="#333333" stroke="#333333" stroke-width="0.1" opacity="0" transform="matrix(10,0,0,10,10,10)"></circle><circle style="-webkit-tap-highlight-color: rgba(0, 0, 0, 0); opacity: 0; " cx="11.879999999999999" cy="10.468" r="0.1" fill="#333333" stroke="#333333" stroke-width="0.1" opacity="0" transform="matrix(10,0,0,10,10,10)"></circle><path style="-webkit-tap-highlight-color: rgba(0, 0, 0, 0); opacity: 0; " fill="#333333" stroke="#333333" d="M9.503,11.563L10.591000000000001,11.405000000000001M11.879999999999999,10.468L12.367,9.482000000000001" stroke-width="0.1" opacity="0" transform="matrix(10,0,0,10,10,10)"></path><circle style="-webkit-tap-highlight-color: rgba(0, 0, 0, 0); opacity: 0; " cx="12.367" cy="9.482000000000001" r="0.1" fill="#333333" stroke="#333333" stroke-width="0.1" opacity="0" transform="matrix(10,0,0,10,10,10)"></circle><circle style="-webkit-tap-highlight-color: rgba(0, 0, 0, 0); opacity: 0; " cx="14.615" cy="4.928" r="0.1" fill="#333333" stroke="#333333" stroke-width="0.1" opacity="0" transform="matrix(10,0,0,10,10,10)"></circle><path style="-webkit-tap-highlight-color: rgba(0, 0, 0, 0); opacity: 0; " fill="#333333" stroke="#333333" d="M12.367,9.482000000000001L12.367,9.482000000000001M14.615,4.928L14.615,4.928" stroke-width="0.1" opacity="0" transform="matrix(10,0,0,10,10,10)"></path><circle style="-webkit-tap-highlight-color: rgba(0, 0, 0, 0); opacity: 0; " cx="14.615" cy="4.928" r="0.1" fill="#333333" stroke="#333333" stroke-width="0.1" opacity="0" transform="matrix(10,0,0,10,10,10)"></circle><circle style="-webkit-tap-highlight-color: rgba(0, 0, 0, 0); opacity: 0; " cx="14.615" cy="4.928" r="0.1" fill="#333333" stroke="#333333" stroke-width="0.1" opacity="0" transform="matrix(10,0,0,10,10,10)"></circle><path style="-webkit-tap-highlight-color: rgba(0, 0, 0, 0); opacity: 0; " fill="#333333" stroke="#333333" d="M14.615,4.928L14.615,4.928M14.615,4.928L14.615,4.928" stroke-width="0.1" opacity="0" transform="matrix(10,0,0,10,10,10)"></path><circle style="-webkit-tap-highlight-color: rgba(0, 0, 0, 0); " cx="14.615" cy="4.928" r="0" fill="#aaaaaa" stroke="#333333" stroke-width="0.1" transform="matrix(10,0,0,10,10,10)"></circle><circle style="-webkit-tap-highlight-color: rgba(0, 0, 0, 0); " cx="16.386" cy="4.928" r="0" fill="#aaaaaa" stroke="#333333" stroke-width="0.1" transform="matrix(10,0,0,10,10,10)"></circle><circle style="-webkit-tap-highlight-color: rgba(0, 0, 0, 0); " cx="18.634999999999998" cy="9.482" r="0" fill="#aaaaaa" stroke="#333333" stroke-width="0.1" transform="matrix(10,0,0,10,10,10)"></circle><circle style="-webkit-tap-highlight-color: rgba(0, 0, 0, 0); " cx="21.499" cy="11.562999999999999" r="0" fill="#aaaaaa" stroke="#333333" stroke-width="0.1" transform="matrix(10,0,0,10,10,10)"></circle><circle style="-webkit-tap-highlight-color: rgba(0, 0, 0, 0); " cx="26.523" cy="12.293" r="0" fill="#aaaaaa" stroke="#333333" stroke-width="0.1" transform="matrix(10,0,0,10,10,10)"></circle><circle style="-webkit-tap-highlight-color: rgba(0, 0, 0, 0); " cx="27.07" cy="13.976999999999999" r="0" fill="#aaaaaa" stroke="#333333" stroke-width="0.1" transform="matrix(10,0,0,10,10,10)"></circle><circle style="-webkit-tap-highlight-color: rgba(0, 0, 0, 0); " cx="23.434" cy="17.520999999999997" r="0" fill="#aaaaaa" stroke="#333333" stroke-width="0.1" transform="matrix(10,0,0,10,10,10)"></circle><circle style="-webkit-tap-highlight-color: rgba(0, 0, 0, 0); " cx="22.339000000000002" cy="20.888999999999996" r="0" fill="#aaaaaa" stroke="#333333" stroke-width="0.1" transform="matrix(10,0,0,10,10,10)"></circle><circle style="-webkit-tap-highlight-color: rgba(0, 0, 0, 0); " cx="23.198" cy="25.892999999999994" r="0" fill="#aaaaaa" stroke="#333333" stroke-width="0.1" transform="matrix(10,0,0,10,10,10)"></circle><circle style="-webkit-tap-highlight-color: rgba(0, 0, 0, 0); " cx="21.765" cy="26.933999999999994" r="0" fill="#aaaaaa" stroke="#333333" stroke-width="0.1" transform="matrix(10,0,0,10,10,10)"></circle><circle style="-webkit-tap-highlight-color: rgba(0, 0, 0, 0); " cx="17.27" cy="24.570999999999994" r="0" fill="#aaaaaa" stroke="#333333" stroke-width="0.1" transform="matrix(10,0,0,10,10,10)"></circle><circle style="-webkit-tap-highlight-color: rgba(0, 0, 0, 0); " cx="13.729" cy="24.570999999999994" r="0" fill="#aaaaaa" stroke="#333333" stroke-width="0.1" transform="matrix(10,0,0,10,10,10)"></circle><circle style="-webkit-tap-highlight-color: rgba(0, 0, 0, 0); " cx="9.233999999999998" cy="26.933999999999994" r="0" fill="#aaaaaa" stroke="#333333" stroke-width="0.1" transform="matrix(10,0,0,10,10,10)"></circle><circle style="-webkit-tap-highlight-color: rgba(0, 0, 0, 0); " cx="7.801999999999998" cy="25.892999999999994" r="0" fill="#aaaaaa" stroke="#333333" stroke-width="0.1" transform="matrix(10,0,0,10,10,10)"></circle><circle style="-webkit-tap-highlight-color: rgba(0, 0, 0, 0); " cx="8.659999999999998" cy="20.888999999999996" r="0" fill="#aaaaaa" stroke="#333333" stroke-width="0.1" transform="matrix(10,0,0,10,10,10)"></circle><circle style="-webkit-tap-highlight-color: rgba(0, 0, 0, 0); " cx="7.565999999999998" cy="17.520999999999997" r="0" fill="#aaaaaa" stroke="#333333" stroke-width="0.1" transform="matrix(10,0,0,10,10,10)"></circle><circle style="-webkit-tap-highlight-color: rgba(0, 0, 0, 0); " cx="3.93" cy="13.977" r="0" fill="#aaaaaa" stroke="#333333" stroke-width="0.1" transform="matrix(10,0,0,10,10,10)"></circle><circle style="-webkit-tap-highlight-color: rgba(0, 0, 0, 0); " cx="4.477" cy="12.293000000000001" r="0" fill="#aaaaaa" stroke="#333333" stroke-width="0.1" transform="matrix(10,0,0,10,10,10)"></circle><circle style="-webkit-tap-highlight-color: rgba(0, 0, 0, 0); " cx="9.503" cy="11.563" r="0" fill="#aaaaaa" stroke="#333333" stroke-width="0.1" transform="matrix(10,0,0,10,10,10)"></circle><circle style="-webkit-tap-highlight-color: rgba(0, 0, 0, 0); " cx="12.367" cy="9.482000000000001" r="0" fill="#aaaaaa" stroke="#333333" stroke-width="0.1" transform="matrix(10,0,0,10,10,10)"></circle><circle style="-webkit-tap-highlight-color: rgba(0, 0, 0, 0); " cx="14.615" cy="4.928" r="0" fill="#aaaaaa" stroke="#333333" stroke-width="0.1" transform="matrix(10,0,0,10,10,10)"></circle><circle style="-webkit-tap-highlight-color: rgba(0, 0, 0, 0); " cx="14.615" cy="4.928" r="0" fill="#aaaaaa" stroke="#333333" stroke-width="0.1" transform="matrix(10,0,0,10,10,10)"></circle><rect style="-webkit-tap-highlight-color: rgba(0, 0, 0, 0); opacity: 0; " x="0" y="0" width="350" height="350" r="0" rx="0" ry="0" fill="#000000" stroke="#000" opacity="0"></rect></svg>